<svg width="1280" height="720" viewBox="0 0 1280 720" fill="none" xmlns="http://www.w3.org/2000/svg">
<g clip-path="url(#clip0_1_2)">
<path d="M46.347 50.9421C51.525 49.5547 56.3976 50.1794 60.9649 52.8163C65.6447 55.4231 68.6784 59.3155 70.0658 64.4935C71.4533 69.6715 70.7873 74.6155 68.068 79.3255C65.4311 83.8928 61.5236 86.8702 56.3456 88.2576C51.1676 89.6451 46.2387 89.0354 41.5588 86.4287C36.9614 83.6792 33.9689 79.7154 32.5815 74.5374C31.1941 69.3594 31.8188 64.4867 34.4557 59.9195C37.2052 55.322 41.1689 52.3296 46.347 50.9421ZM80.8904 274.415L78.8997 266.986C89.4685 260.052 96.8189 251.688 100.951 241.894C105.226 232.183 106.157 222.825 103.744 213.819C103.17 211.681 102.181 210.015 100.776 208.823C99.7168 208.021 98.7931 207.726 98.0051 207.937C96.7669 208.269 94.3669 210.118 90.8052 213.486C89.0505 215.042 87.0475 216.121 84.7962 216.725C79.2805 218.203 74.4531 217.747 70.314 215.357C66.1749 212.967 63.3362 208.902 61.798 203.161C60.32 197.645 61.1357 192.36 64.2449 187.304C67.4668 182.218 72.117 178.861 78.1955 177.232C85.6248 175.241 93.0846 176.741 100.575 181.732C108.147 186.579 113.366 194.35 116.232 205.044C119.339 216.638 118.167 228.474 112.716 240.551C107.408 252.711 96.7998 263.999 80.8904 274.415Z" fill="black"/>
<path d="M413.208 232.376C416.365 234.199 418.408 236.843 419.336 240.307C420.333 243.811 419.92 247.142 418.097 250.299C416.274 253.457 413.577 255.514 410.004 256.471C406.539 257.4 403.228 256.953 400.071 255.13C396.914 253.307 394.837 250.643 393.84 247.139C392.951 243.606 393.418 240.261 395.241 237.103C397.064 233.946 399.708 231.903 403.172 230.975C406.705 230.086 410.05 230.553 413.208 232.376ZM322.351 356.456L324.967 351.926C333.384 353.674 340.941 353.187 347.638 350.464C354.364 347.85 359.312 343.797 362.482 338.306C363.235 337.002 363.56 335.725 363.458 334.476C363.334 333.581 363.032 332.995 362.551 332.718C361.796 332.282 359.753 332.017 356.42 331.924C354.828 331.828 353.346 331.384 351.973 330.591C348.61 328.65 346.508 326.109 345.666 322.969C344.825 319.829 345.415 316.509 347.436 313.009C349.378 309.646 352.312 307.496 356.238 306.56C360.234 305.663 364.084 306.285 367.791 308.425C372.321 311.04 375.187 315.349 376.389 321.351C377.7 327.324 376.472 333.571 372.708 340.092C368.626 347.161 362.371 352.29 353.941 355.476C345.541 358.772 335.011 359.098 322.351 356.456Z" fill="black"/>
<path d="M262.853 92.7305C263.894 91.69 265.138 91.1698 266.585 91.1698C268.055 91.1472 269.311 91.6561 270.351 92.6965C271.392 93.737 271.912 95.0036 271.912 96.4964C271.912 97.9439 271.392 99.1879 270.351 100.228C269.311 101.269 268.055 101.8 266.585 101.823C265.115 101.8 263.86 101.269 262.819 100.228C261.779 99.1879 261.259 97.9439 261.259 96.4964C261.281 95.0262 261.813 93.7709 262.853 92.7305ZM301.734 141.111L300.241 139.618C301.802 136.519 302.401 133.522 302.039 130.627C301.722 127.732 300.659 125.38 298.85 123.57C298.42 123.14 297.956 122.88 297.459 122.79C297.097 122.745 296.837 122.801 296.679 122.96C296.43 123.208 296.113 123.977 295.729 125.267C295.525 125.877 295.197 126.409 294.745 126.861C293.636 127.969 292.426 128.524 291.115 128.524C289.803 128.524 288.57 127.947 287.416 126.793C286.308 125.685 285.777 124.317 285.822 122.688C285.89 121.037 286.534 119.601 287.756 118.379C289.249 116.887 291.228 116.219 293.693 116.378C296.158 116.491 298.465 117.622 300.614 119.77C302.944 122.1 304.29 125.074 304.651 128.693C305.059 132.312 304.086 136.451 301.734 141.111Z" fill="black"/>
<path d="M1207.5 325.948C1209.32 329.106 1209.77 332.416 1208.84 335.881C1207.95 339.414 1205.93 342.092 1202.77 343.915C1199.62 345.738 1196.25 346.171 1192.68 345.213C1189.21 344.285 1186.57 342.242 1184.75 339.085C1182.92 335.928 1182.46 332.582 1183.35 329.049C1184.34 325.545 1186.42 322.882 1189.58 321.059C1192.73 319.236 1196.04 318.788 1199.51 319.717C1203.01 320.714 1205.68 322.791 1207.5 325.948ZM1066.78 387.977L1071.31 385.361C1077.72 391.084 1084.51 394.44 1091.67 395.431C1098.8 396.529 1105.11 395.494 1110.61 392.323C1111.91 391.57 1112.83 390.627 1113.36 389.495C1113.71 388.657 1113.74 387.999 1113.46 387.518C1113.02 386.763 1111.39 385.512 1108.55 383.765C1107.22 382.886 1106.15 381.76 1105.36 380.388C1103.42 377.024 1102.87 373.773 1103.71 370.633C1104.55 367.494 1106.72 364.913 1110.22 362.892C1113.59 360.95 1117.2 360.556 1121.07 361.708C1124.98 362.93 1128 365.394 1130.14 369.1C1132.76 373.63 1133.09 378.795 1131.13 384.594C1129.28 390.422 1125.09 395.218 1118.57 398.982C1111.5 403.064 1103.52 404.378 1094.62 402.923C1085.7 401.577 1076.42 396.595 1066.78 387.977Z" fill="black"/>
<path d="M93.6511 400.913C94.5947 397.391 96.6196 394.734 99.7258 392.94C102.852 391.07 106.177 390.607 109.698 391.551C113.22 392.494 115.905 394.568 117.755 397.771C119.548 400.877 119.973 404.191 119.029 407.713C118.086 411.234 116.05 413.93 112.924 415.8C109.741 417.573 106.389 417.987 102.867 417.044C99.3458 416.1 96.6883 414.075 94.895 410.969C93.1221 407.786 92.7075 404.434 93.6511 400.913ZM237.019 456.559L231.966 455.205C231.476 446.622 229.049 439.449 224.686 433.685C220.42 427.865 215.225 424.134 209.1 422.493C207.646 422.103 206.328 422.12 205.149 422.542C204.316 422.893 203.828 423.337 203.684 423.873C203.459 424.715 203.732 426.757 204.504 430C204.824 431.563 204.779 433.11 204.368 434.641C203.363 438.392 201.453 441.08 198.638 442.705C195.823 444.331 192.464 444.62 188.559 443.574C184.808 442.569 181.972 440.291 180.052 436.741C178.152 433.114 177.756 429.233 178.863 425.099C180.217 420.046 183.637 416.163 189.124 413.448C194.554 410.637 200.906 410.205 208.178 412.154C216.064 414.267 222.636 418.982 227.896 426.299C233.253 433.56 236.294 443.647 237.019 456.559Z" fill="black"/>
<path d="M646.935 373.603C649.228 372.989 651.386 373.265 653.408 374.433C655.48 375.587 656.823 377.31 657.437 379.603C658.052 381.896 657.757 384.085 656.553 386.17C655.385 388.192 653.655 389.511 651.362 390.125C649.07 390.739 646.888 390.469 644.815 389.315C642.78 388.098 641.455 386.343 640.841 384.05C640.226 381.757 640.503 379.6 641.67 377.578C642.888 375.542 644.643 374.217 646.935 373.603ZM662.23 472.549L661.349 469.259C666.028 466.189 669.283 462.486 671.112 458.15C673.005 453.85 673.417 449.706 672.349 445.719C672.095 444.772 671.657 444.035 671.035 443.507C670.566 443.152 670.157 443.021 669.808 443.115C669.26 443.262 668.197 444.08 666.62 445.571C665.843 446.26 664.956 446.738 663.959 447.005C661.517 447.66 659.38 447.458 657.547 446.4C655.715 445.342 654.458 443.542 653.777 441C653.122 438.558 653.483 436.217 654.86 433.979C656.287 431.727 658.345 430.241 661.037 429.519C664.326 428.638 667.629 429.302 670.946 431.512C674.299 433.658 676.609 437.099 677.878 441.834C679.254 446.967 678.735 452.208 676.321 457.555C673.971 462.939 669.274 467.937 662.23 472.549Z" fill="black"/>
<path d="M200.908 531.222C204.081 532.072 206.476 533.897 208.092 536.696C209.777 539.513 210.194 542.509 209.344 545.682C208.494 548.855 206.625 551.275 203.739 552.942C200.94 554.558 197.953 554.941 194.78 554.091C191.607 553.24 189.178 551.406 187.493 548.589C185.895 545.721 185.521 542.7 186.372 539.527C187.222 536.354 189.047 533.959 191.846 532.343C194.714 530.745 197.734 530.372 200.908 531.222ZM150.764 660.412L151.984 655.859C159.718 655.418 166.182 653.231 171.376 649.299C176.621 645.455 179.982 640.773 181.461 635.255C181.812 633.944 181.798 632.757 181.417 631.694C181.101 630.944 180.701 630.504 180.218 630.374C179.459 630.171 177.619 630.417 174.697 631.113C173.288 631.401 171.895 631.36 170.515 630.991C167.135 630.085 164.712 628.364 163.248 625.827C161.783 623.291 161.522 620.263 162.465 616.745C163.371 613.365 165.423 610.809 168.623 609.079C171.891 607.367 175.388 607.01 179.113 608.008C183.666 609.228 187.166 612.31 189.612 617.254C192.145 622.147 192.534 627.87 190.778 634.424C188.874 641.529 184.626 647.452 178.032 652.192C171.489 657.019 162.4 659.759 150.764 660.412Z" fill="black"/>
<path d="M1242.74 8.49215C1248.1 9.92865 1252.15 13.0113 1254.88 17.74C1257.73 22.5 1258.43 27.5606 1257 32.9217C1255.56 38.2828 1252.4 42.3711 1247.53 45.1865C1242.8 47.9167 1237.75 48.5635 1232.39 47.127C1227.03 45.6905 1222.93 42.5923 1220.08 37.8323C1217.38 32.987 1216.75 27.8838 1218.19 22.5227C1219.62 17.1616 1222.71 13.1159 1227.43 10.3858C1232.28 7.68686 1237.38 7.05565 1242.74 8.49215ZM1158.03 226.751L1160.09 219.059C1173.16 218.313 1184.08 214.618 1192.85 207.976C1201.71 201.481 1207.39 193.572 1209.89 184.248C1210.48 182.034 1210.46 180.029 1209.82 178.233C1209.28 176.965 1208.61 176.222 1207.79 176.003C1206.51 175.66 1203.4 176.076 1198.46 177.251C1196.08 177.738 1193.73 177.669 1191.4 177.045C1185.69 175.514 1181.59 172.607 1179.12 168.321C1176.65 164.036 1176.2 158.921 1177.8 152.977C1179.33 147.267 1182.79 142.949 1188.2 140.026C1193.72 137.133 1199.63 136.53 1205.92 138.217C1213.61 140.278 1219.53 145.484 1223.66 153.837C1227.94 162.104 1228.6 171.773 1225.63 182.845C1222.41 194.849 1215.24 204.855 1204.1 212.862C1193.04 221.018 1177.69 225.647 1158.03 226.751Z" fill="black"/>
<path d="M909.589 222.743C910.726 223.88 911.294 225.239 911.294 226.821C911.319 228.427 910.763 229.798 909.627 230.935C908.49 232.072 907.106 232.64 905.475 232.64C903.894 232.64 902.535 232.072 901.398 230.935C900.261 229.798 899.68 228.427 899.656 226.821C899.68 225.215 900.261 223.843 901.398 222.706C902.535 221.57 903.894 221.001 905.475 221.001C907.081 221.026 908.453 221.607 909.589 222.743ZM856.733 265.221L858.364 263.59C861.749 265.295 865.023 265.95 868.186 265.555C871.349 265.209 873.919 264.048 875.896 262.071C876.366 261.601 876.65 261.095 876.749 260.551C876.798 260.156 876.736 259.871 876.563 259.698C876.292 259.427 875.451 259.081 874.043 258.661C873.376 258.438 872.795 258.08 872.301 257.586C871.09 256.375 870.485 255.053 870.485 253.62C870.485 252.186 871.115 250.84 872.375 249.579C873.586 248.369 875.081 247.788 876.86 247.837C878.664 247.911 880.233 248.616 881.567 249.95C883.198 251.581 883.927 253.743 883.754 256.437C883.631 259.13 882.395 261.651 880.048 263.998C877.502 266.543 874.253 268.014 870.299 268.409C866.345 268.854 861.823 267.791 856.733 265.221Z" fill="black"/>
<path d="M932.889 46.7908C935.189 49.0913 936.34 51.8418 936.34 55.0425C936.39 58.2931 935.264 61.0687 932.964 63.3692C930.663 65.6696 927.863 66.8199 924.562 66.8199C921.362 66.8199 918.611 65.6696 916.311 63.3692C914.01 61.0687 912.835 58.2931 912.785 55.0425C912.835 51.7918 914.01 49.0163 916.311 46.7158C918.611 44.4154 921.362 43.2651 924.562 43.2651C927.813 43.3151 930.588 44.4904 932.889 46.7908ZM825.917 132.758L829.218 129.457C836.069 132.908 842.696 134.233 849.097 133.433C855.498 132.733 860.699 130.383 864.7 126.382C865.65 125.432 866.226 124.406 866.426 123.306C866.526 122.506 866.401 121.931 866.05 121.581C865.5 121.031 863.8 120.331 860.949 119.48C859.599 119.03 858.424 118.305 857.424 117.305C854.973 114.854 853.748 112.179 853.748 109.278C853.748 106.378 855.023 103.652 857.574 101.102C860.024 98.6512 863.05 97.476 866.651 97.576C870.301 97.7261 873.477 99.1513 876.178 101.852C879.478 105.153 880.953 109.528 880.603 114.98C880.353 120.431 877.853 125.532 873.102 130.283C867.951 135.434 861.375 138.409 853.373 139.209C845.371 140.11 836.219 137.959 825.917 132.758Z" fill="black"/>
<path d="M957.143 393.615C959.594 394.272 961.445 395.681 962.693 397.844C963.995 400.021 964.318 402.336 963.661 404.788C963.004 407.24 961.56 409.109 959.33 410.397C957.167 411.646 954.86 411.942 952.408 411.285C949.956 410.628 948.079 409.211 946.777 407.034C945.543 404.817 945.254 402.483 945.911 400.032C946.568 397.58 947.978 395.729 950.14 394.481C952.357 393.246 954.691 392.958 957.143 393.615ZM918.398 493.438L919.34 489.92C925.316 489.578 930.311 487.889 934.324 484.851C938.376 481.88 940.974 478.263 942.117 473.999C942.388 472.986 942.377 472.069 942.082 471.247C941.838 470.668 941.529 470.328 941.156 470.228C940.57 470.071 939.147 470.261 936.89 470.799C935.802 471.021 934.725 470.99 933.658 470.704C931.047 470.004 929.175 468.674 928.043 466.714C926.912 464.754 926.71 462.415 927.438 459.697C928.138 457.085 929.724 455.11 932.196 453.773C934.722 452.45 937.424 452.174 940.302 452.946C943.82 453.888 946.524 456.27 948.414 460.09C950.372 463.871 950.672 468.293 949.316 473.357C947.844 478.847 944.562 483.423 939.467 487.086C934.411 490.816 927.388 492.933 918.398 493.438Z" fill="black"/>
<path d="M957.143 393.615C959.594 394.272 961.445 395.681 962.693 397.844C963.995 400.021 964.318 402.336 963.661 404.788C963.004 407.24 961.56 409.109 959.33 410.397C957.167 411.646 954.86 411.942 952.408 411.285C949.956 410.628 948.079 409.211 946.777 407.034C945.543 404.817 945.254 402.483 945.911 400.032C946.568 397.58 947.978 395.729 950.14 394.481C952.357 393.246 954.691 392.958 957.143 393.615ZM918.398 493.438L919.34 489.92C925.316 489.578 930.311 487.889 934.324 484.851C938.376 481.88 940.974 478.263 942.117 473.999C942.388 472.986 942.377 472.069 942.082 471.247C941.838 470.668 941.529 470.328 941.156 470.228C940.57 470.071 939.147 470.261 936.89 470.799C935.802 471.021 934.725 470.99 933.658 470.704C931.047 470.004 929.175 468.674 928.043 466.714C926.912 464.754 926.71 462.415 927.438 459.697C928.138 457.085 929.724 455.11 932.196 453.773C934.722 452.45 937.424 452.174 940.302 452.946C943.82 453.888 946.524 456.27 948.414 460.09C950.372 463.871 950.672 468.293 949.316 473.357C947.844 478.847 944.562 483.423 939.467 487.086C934.411 490.816 927.388 492.933 918.398 493.438Z" fill="black"/>
<path d="M803.319 598.919C804.62 598.57 805.844 598.727 806.991 599.39C808.166 600.044 808.928 601.022 809.277 602.323C809.625 603.623 809.458 604.865 808.775 606.048C808.113 607.195 807.131 607.943 805.83 608.292C804.53 608.64 803.292 608.487 802.116 607.832C800.961 607.142 800.21 606.146 799.861 604.846C799.513 603.545 799.67 602.321 800.332 601.174C801.023 600.019 802.018 599.267 803.319 598.919ZM811.996 655.051L811.496 653.185C814.15 651.444 815.997 649.343 817.035 646.883C818.108 644.443 818.342 642.093 817.736 639.831C817.592 639.294 817.344 638.875 816.991 638.576C816.725 638.374 816.493 638.3 816.295 638.353C815.984 638.437 815.381 638.901 814.486 639.747C814.045 640.138 813.542 640.409 812.977 640.561C811.591 640.932 810.379 640.817 809.339 640.217C808.299 639.617 807.586 638.596 807.2 637.154C806.829 635.768 807.034 634.44 807.815 633.171C808.624 631.893 809.792 631.05 811.319 630.641C813.185 630.141 815.059 630.517 816.94 631.771C818.842 632.989 820.153 634.94 820.873 637.627C821.653 640.539 821.359 643.512 819.99 646.545C818.657 649.6 815.992 652.435 811.996 655.051Z" fill="black"/>
<path d="M803.319 598.919C804.62 598.57 805.844 598.727 806.991 599.39C808.166 600.044 808.928 601.022 809.277 602.323C809.625 603.623 809.458 604.865 808.775 606.048C808.113 607.195 807.131 607.943 805.83 608.292C804.53 608.64 803.292 608.487 802.116 607.832C800.961 607.142 800.21 606.146 799.861 604.846C799.513 603.545 799.67 602.321 800.332 601.174C801.023 600.019 802.018 599.267 803.319 598.919ZM811.996 655.051L811.496 653.185C814.15 651.444 815.997 649.343 817.035 646.883C818.108 644.443 818.342 642.093 817.736 639.831C817.592 639.294 817.344 638.875 816.991 638.576C816.725 638.374 816.493 638.3 816.295 638.353C815.984 638.437 815.381 638.901 814.486 639.747C814.045 640.138 813.542 640.409 812.977 640.561C811.591 640.932 810.379 640.817 809.339 640.217C808.299 639.617 807.586 638.596 807.2 637.154C806.829 635.768 807.034 634.44 807.815 633.171C808.624 631.893 809.792 631.05 811.319 630.641C813.185 630.141 815.059 630.517 816.94 631.771C818.842 632.989 820.153 634.94 820.873 637.627C821.653 640.539 821.359 643.512 819.99 646.545C818.657 649.6 815.992 652.435 811.996 655.051Z" fill="black"/>
<path d="M492.501 532.61C494.462 532.61 496.125 533.293 497.49 534.657C498.897 536.022 499.601 537.685 499.601 539.646C499.601 541.608 498.897 543.292 497.49 544.7C496.125 546.064 494.462 546.747 492.501 546.747C490.539 546.747 488.855 546.064 487.447 544.7C486.083 543.292 485.401 541.608 485.401 539.646C485.401 537.685 486.083 536.022 487.447 534.657C488.855 533.293 490.539 532.61 492.501 532.61ZM483.546 614.869V612.055C487.938 610.605 491.328 608.345 493.716 605.274C496.147 602.247 497.362 599.027 497.362 595.616C497.362 594.805 497.17 594.123 496.786 593.569C496.488 593.185 496.189 592.993 495.891 592.993C495.422 592.993 494.398 593.42 492.82 594.272C492.053 594.656 491.243 594.848 490.39 594.848C488.3 594.848 486.637 594.23 485.401 592.993C484.164 591.756 483.546 590.051 483.546 587.876C483.546 585.786 484.334 583.995 485.912 582.503C487.533 581.01 489.494 580.264 491.797 580.264C494.611 580.264 497.106 581.501 499.281 583.974C501.498 586.405 502.607 589.646 502.607 593.697C502.607 598.089 501.072 602.161 498.002 605.914C494.974 609.709 490.155 612.694 483.546 614.869Z" fill="black"/>
<path d="M580.922 122.651C583.478 121.966 585.884 122.274 588.138 123.576C590.448 124.863 591.946 126.784 592.631 129.34C593.315 131.896 592.987 134.337 591.644 136.662C590.343 138.916 588.414 140.386 585.858 141.071C583.302 141.756 580.869 141.455 578.559 140.168C576.289 138.811 574.812 136.854 574.127 134.298C573.442 131.742 573.751 129.337 575.052 127.082C576.41 124.813 578.366 123.336 580.922 122.651ZM597.974 232.963L596.991 229.296C602.208 225.873 605.837 221.744 607.876 216.91C609.986 212.116 610.446 207.497 609.255 203.051C608.972 201.996 608.484 201.174 607.79 200.585C607.267 200.189 606.811 200.044 606.422 200.148C605.811 200.312 604.626 201.225 602.868 202.887C602.002 203.655 601.013 204.188 599.902 204.486C597.179 205.215 594.796 204.99 592.753 203.81C590.71 202.631 589.309 200.624 588.549 197.79C587.82 195.068 588.222 192.458 589.757 189.963C591.348 187.452 593.643 185.795 596.644 184.991C600.311 184.008 603.993 184.749 607.691 187.212C611.429 189.605 614.005 193.441 615.419 198.72C616.953 204.443 616.374 210.285 613.684 216.247C611.064 222.25 605.827 227.822 597.974 232.963Z" fill="black"/>
<path d="M1107.84 529.735C1111.36 527.704 1115.05 527.205 1118.91 528.24C1122.85 529.23 1125.83 531.484 1127.86 535.003C1129.89 538.521 1130.38 542.271 1129.31 546.252C1128.28 550.112 1126 553.058 1122.48 555.089C1118.96 557.121 1115.24 557.641 1111.3 556.651C1107.39 555.54 1104.43 553.225 1102.39 549.707C1100.36 546.189 1099.86 542.5 1100.9 538.639C1102.01 534.734 1104.32 531.766 1107.84 529.735ZM1176.96 686.546L1174.05 681.498C1180.42 674.349 1184.16 666.785 1185.27 658.805C1186.49 650.858 1185.34 643.825 1181.81 637.706C1180.97 636.253 1179.92 635.228 1178.65 634.631C1177.72 634.252 1176.99 634.217 1176.45 634.526C1175.61 635.012 1174.22 636.836 1172.27 640C1171.29 641.483 1170.03 642.666 1168.51 643.549C1164.76 645.713 1161.13 646.326 1157.64 645.389C1154.14 644.451 1151.26 642.032 1149.01 638.131C1146.85 634.384 1146.41 630.355 1147.69 626.044C1149.05 621.689 1151.8 618.319 1155.93 615.935C1160.98 613.02 1166.73 612.655 1173.19 614.839C1179.69 616.902 1185.03 621.567 1189.23 628.833C1193.77 636.711 1195.24 645.605 1193.62 655.515C1192.12 665.457 1186.56 675.801 1176.96 686.546Z" fill="black"/>
</g>
<defs>
<clipPath id="clip0_1_2">
<rect width="1280" height="720" fill="white"/>
</clipPath>
</defs>
</svg>
